<svg width="97" height="82" viewBox="0 0 97 82" fill="none" xmlns="http://www.w3.org/2000/svg">
<g clip-path="url(#clip0_71_272)">
<path d="M0 82L7.4431 53.0367C3.73775 50.03 1.36036 45.4322 1.36036 40.276C1.36036 31.2168 8.68038 23.8786 17.6976 23.8786C23.4888 23.8786 28.5675 26.8918 31.4826 31.4376L17.0822 43.0359H33.8276C33.1603 46.9648 31.1004 50.4131 28.1724 52.8614L35.6608 82H0ZM92.893 38.6849C94.5449 43.7113 91.8177 49.1273 86.8038 50.7833C83.3057 51.9392 79.6198 50.9521 77.1452 48.5429C75.8497 52.1016 73.0059 55.0628 69.1321 56.3357C62.9651 58.3748 56.3706 55.4395 53.6175 49.7313C48.0077 51.1729 42.1646 48.0363 40.3249 42.4385C40.0334 41.5553 39.8779 40.6656 39.8067 39.7759H26.4557L36.2827 33.204C35.2333 32.0675 34.3976 30.7038 33.8859 29.1452C31.9749 23.3266 35.1296 17.0533 40.9338 15.1376C41.2253 15.0402 41.5233 14.9688 41.8148 14.8973C41.8925 9.44885 45.3647 4.40299 50.8126 2.60415C55.2953 1.12351 59.9983 2.21451 63.3603 5.0524C64.902 3.06523 67.0332 1.50017 69.5985 0.655944C76.478 -1.61696 83.8887 2.13658 86.156 9.02674C86.2337 9.26701 86.292 9.51379 86.3568 9.75407C90.8654 11.0074 94.6874 14.4168 96.2615 19.2094C98.2697 25.3332 95.9959 31.8337 91.0792 35.4509C91.863 36.3731 92.4914 37.4576 92.893 38.6784V38.6849Z" fill="#6F6F6F"/>
<path d="M56.7529 26.8009C56.6363 27.1256 56.578 27.4957 56.578 27.8984C56.578 28.301 56.6363 28.6517 56.7529 28.9764C56.8695 29.3011 57.0314 29.5738 57.2387 29.8076C57.446 30.0414 57.6986 30.2167 57.9966 30.3336C58.2946 30.457 58.625 30.5154 58.9877 30.5154C59.2339 30.5154 59.4671 30.4765 59.6938 30.3986C59.9206 30.3206 60.1214 30.2167 60.3157 30.0803C60.5101 29.944 60.672 29.7946 60.821 29.6193L61.7732 31.2947C61.5789 31.535 61.3263 31.7493 61.0024 31.9376C60.6785 32.126 60.3287 32.2753 59.94 32.3792C59.5513 32.4896 59.1562 32.5416 58.7675 32.5416C58.1586 32.5416 57.595 32.4312 57.0833 32.1974C56.5715 31.9701 56.1245 31.6454 55.7488 31.2298C55.3731 30.8142 55.0816 30.3206 54.8743 29.7491C54.667 29.1777 54.5698 28.5478 54.5698 27.8594C54.5698 27.171 54.6799 26.5671 54.8937 26.0021C55.1075 25.4371 55.4055 24.9436 55.7877 24.528C56.1699 24.1123 56.6233 23.7876 57.1415 23.5539C57.6598 23.3201 58.2298 23.2032 58.8517 23.2032C59.2404 23.2032 59.6161 23.2616 59.9853 23.372C60.3546 23.4824 60.6979 23.6513 61.0218 23.8656C61.3392 24.0864 61.6178 24.3461 61.851 24.6448L60.6461 26.1774C60.4841 25.9891 60.3092 25.8203 60.1279 25.6839C59.9465 25.541 59.7457 25.4306 59.5319 25.3527C59.3181 25.2748 59.0849 25.2358 58.8388 25.2358C58.5278 25.2358 58.2363 25.3007 57.9642 25.4241C57.6922 25.5475 57.4525 25.7229 57.2452 25.9501C57.0379 26.1774 56.8824 26.4567 56.7658 26.7814L56.7529 26.8009ZM70.6285 26.0021C70.8358 26.5671 70.933 27.1905 70.933 27.8724C70.933 28.5542 70.8293 29.1647 70.6285 29.7362C70.4277 30.3076 70.1297 30.8012 69.754 31.2233C69.3783 31.6454 68.9313 31.9701 68.426 32.2039C67.9143 32.4377 67.3637 32.5546 66.7612 32.5546C66.1588 32.5546 65.5822 32.4377 65.0705 32.2039C64.5587 31.9701 64.1182 31.6454 63.7425 31.2233C63.3668 30.8012 63.0688 30.3076 62.8615 29.7427C62.6542 29.1777 62.5506 28.5542 62.5506 27.8724C62.5506 27.1905 62.6542 26.5671 62.8615 26.0021C63.0688 25.4371 63.3603 24.9436 63.7425 24.5215C64.1182 24.0993 64.5652 23.7746 65.0705 23.5409C65.5758 23.3071 66.1393 23.1902 66.7483 23.1902C67.3572 23.1902 67.9143 23.3071 68.426 23.5409C68.9378 23.7746 69.3783 24.0993 69.754 24.5215C70.1297 24.9436 70.4212 25.4371 70.6285 26.0021ZM68.9313 27.8724C68.9313 27.4957 68.8795 27.145 68.7694 26.8268C68.6592 26.5086 68.5103 26.2294 68.3094 25.9956C68.1086 25.7618 67.8819 25.5735 67.6163 25.4501C67.3507 25.3202 67.0592 25.2553 66.7418 25.2553C66.4244 25.2553 66.1329 25.3202 65.8673 25.4501C65.6017 25.58 65.3685 25.7618 65.1677 25.9956C64.9668 26.2294 64.8179 26.5086 64.7077 26.8268C64.6041 27.145 64.5523 27.4957 64.5523 27.8724C64.5523 28.249 64.6041 28.5997 64.7077 28.9244C64.8114 29.2491 64.9668 29.5219 65.1677 29.7556C65.3685 29.9894 65.6017 30.1713 65.8673 30.2946C66.1329 30.4245 66.4244 30.4895 66.7418 30.4895C67.0592 30.4895 67.3507 30.4245 67.6163 30.2946C67.8819 30.1648 68.1151 29.9829 68.3094 29.7491C68.5038 29.5154 68.6592 29.2361 68.7694 28.9179C68.8795 28.5997 68.9313 28.249 68.9313 27.8724ZM74.9039 30.8726L75.9339 29.8725C76.1736 29.6387 76.3809 29.418 76.5558 29.2101C76.7307 29.0023 76.8862 28.8075 77.0157 28.6192C77.1453 28.4309 77.2425 28.249 77.3202 28.0802C77.3979 27.9113 77.4562 27.749 77.4951 27.5931C77.534 27.4373 77.5534 27.2814 77.5534 27.1386C77.5534 26.7164 77.4368 26.3528 77.2101 26.0411C76.9833 25.7293 76.6724 25.4826 76.2902 25.3072C75.9015 25.1319 75.474 25.041 74.9946 25.0345C74.5412 25.0345 74.1136 25.1189 73.712 25.2878C73.3104 25.4566 72.9606 25.6904 72.6626 26.0021C72.3646 26.3073 72.1379 26.658 71.9759 27.0606L73.4335 27.762C73.5565 27.5217 73.6926 27.3204 73.8351 27.1515C73.9776 26.9892 74.1331 26.8658 74.295 26.7879C74.457 26.7099 74.6254 26.671 74.8068 26.671C75.0076 26.671 75.176 26.697 75.3056 26.7554C75.4351 26.8139 75.5388 26.8918 75.6035 26.9957C75.6748 27.0996 75.7072 27.2165 75.7072 27.3593C75.7072 27.5022 75.6619 27.6451 75.5712 27.8139C75.4805 27.9763 75.3639 28.1516 75.2214 28.327C75.0724 28.5023 74.9234 28.6711 74.7679 28.84C74.6124 29.0023 74.4699 29.1517 74.3404 29.2816L71.9759 31.5805L72.3581 32.4247H77.9162V30.8791H74.9039V30.8726Z" fill="white"/>
</g>
<defs>
<clipPath id="clip0_71_272">
<rect width="97" height="82" fill="white"/>
</clipPath>
</defs>
</svg>
