<svg width="32" height="32" viewBox="0 0 32 32" fill="none" xmlns="http://www.w3.org/2000/svg">
<path d="M7 8H4C4 4.4 7.4 1 10.99 1C14.58 1 18 3.25001 18 7.01001H15C15 5.13001 12.92 4 10.99 4C9.06 4 7 6.06 7 8Z" fill="#890080"/>
<path d="M10 8H4V14L10 8Z" fill="#890080"/>
<path d="M11.01 21C7.56 21 4 18.75 4 14.99H7C7 16.85 9.08 18 11.01 18C12.94 18 15 15.94 15 14H18C18 17.6 14.6 21 11.01 21Z" fill="#890080"/>
<path d="M12 14H18V8.01001L12 14Z" fill="#890080"/>
<path d="M28 6H24V26.9688H28V6Z" fill="#890080"/>
<path d="M21 27.13H17V22L21 18V27.13Z" fill="#890080"/>
<path d="M14 23H10V27.13H14V23Z" fill="#890080"/>
<path d="M28 29H4V31H28V29Z" fill="#890080"/>
<path d="M6 31L6 22H4V31H6Z" fill="#890080"/>
</svg>
