<svg width="32" height="32" viewBox="0 0 32 32" fill="none" xmlns="http://www.w3.org/2000/svg">
<path d="M16.1899 6V3" stroke="#E83C60" stroke-width="2" stroke-miterlimit="10" stroke-linecap="round"/>
<path d="M23.26 8.93005L25.38 6.81006" stroke="#E83C60" stroke-width="2" stroke-miterlimit="10" stroke-linecap="round"/>
<path d="M23.26 23.0701L25.38 25.1901" stroke="#E83C60" stroke-width="2" stroke-miterlimit="10" stroke-linecap="round"/>
<path d="M16.1899 26V29" stroke="#E83C60" stroke-width="2" stroke-miterlimit="10" stroke-linecap="round"/>
<path d="M9.12 23.0701L7 25.1901" stroke="#E83C60" stroke-width="2" stroke-miterlimit="10" stroke-linecap="round"/>
<path d="M29.75 16.3301H26.75" stroke="#E83C60" stroke-width="2" stroke-miterlimit="10" stroke-linecap="round"/>
<path d="M5.75 16.3301H2.75" stroke="#E83C60" stroke-width="2" stroke-miterlimit="10" stroke-linecap="round"/>
<path d="M9.12 8.93005L7 6.81006" stroke="#E83C60" stroke-width="2" stroke-miterlimit="10" stroke-linecap="round"/>
<path d="M16.1899 8C11.7699 8 8.18994 11.58 8.18994 16C8.18994 20.42 11.7699 24 16.1899 24C20.6099 24 24.1899 20.42 24.1899 16C24.1899 11.58 20.6099 8 16.1899 8ZM13.3799 22.52L14.92 17H12.3299L18.7599 9.64001L17.2199 15.16H19.8099L13.3799 22.52Z" fill="#E83C60"/>
</svg>
