<svg width="32" height="32" viewBox="0 0 32 32" fill="none" xmlns="http://www.w3.org/2000/svg">
<path d="M15.9005 30.335C9.89005 30.335 5 25.3926 5 19.3088H8.10995C8.10995 23.6544 11.6073 27.1937 15.9005 27.1937C20.1937 27.1937 23.8901 23.6544 23.8901 19.3088L27 19.4999C27 25.5732 21.911 30.335 15.911 30.335H15.9005Z" fill="#2541B3"/>
<path d="M19.9843 21.4869H24.4555L27 19.5V14.7146L19.9843 21.4869Z" fill="#2541B3"/>
<path d="M26.9895 13.0262H23.8796C23.8796 8.68063 20.1832 5.14136 15.8901 5.14136C11.5969 5.14136 8.09948 8.68063 8.09948 13.0262H5C5 6.95288 9.89005 2 15.9005 2C21.911 2 26.9895 6.94241 26.9895 13.0262Z" fill="#2541B3"/>
<path d="M12.7696 9.88477H7.12565L5 13.0261V17.6544L12.7696 9.88477Z" fill="#2541B3"/>
<path d="M22.7539 15.3193H15.4241L11.7382 24.7434L22.7539 15.3193Z" fill="#2541B3"/>
<path d="M9.18848 17.4136H16.5183L20.2042 7.9895L9.18848 17.4136Z" fill="#2541B3"/>
</svg>
