<svg width="29" height="30" viewBox="0 0 29 30" fill="none" xmlns="http://www.w3.org/2000/svg">
<path d="M19.96 24L14 29.5L7.95 24H19.96ZM28.09 15.17C28.09 18.6 25.07 21.5 21.5 21.5H6.42C2.93 21.5 0.0899963 18.66 0.0899963 15.17C0.0899963 13.07 1.13 11.15 2.78 9.99C2.8 4.48 7.29 0 12.81 0C15.6 0 18.24 1.16 20.12 3.16C23.38 3.3 26 6 26 9.29C26 9.66 25.97 10.02 25.91 10.37C27.27 11.55 28.11 13.28 28.11 15.16L28.09 15.17ZM25.59 15.17C25.59 13.4 24.39 11.91 22.76 11.47C23.21 10.86 23.48 10.11 23.48 9.29C23.48 7.28 21.85 5.65 19.84 5.65C19.55 5.65 19.27 5.69 19 5.75C17.64 3.78 15.37 2.49 12.8 2.49C8.64 2.49 5.27 5.86 5.27 10.02C5.27 10.51 5.32 11 5.41 11.46C3.78 11.9 2.58 13.39 2.58 15.16C2.58 17.28 4.29 18.99 6.41 18.99H21.49C23.61 18.99 25.58 17.28 25.58 15.16L25.59 15.17ZM10.09 16.5C10.42 16.31 10.71 16.03 10.96 15.65L10.3 14.7C10.14 14.92 9.96 15.1 9.75 15.24C9.54 15.38 9.31 15.45 9.04 15.45C8.72 15.45 8.44 15.34 8.2 15.13C7.96 14.92 7.77 14.61 7.64 14.21C7.51 13.81 7.45 13.33 7.45 12.77C7.45 12.21 7.52 11.74 7.66 11.35C7.8 10.96 7.99 10.65 8.24 10.44C8.49 10.23 8.76 10.12 9.07 10.12C9.3 10.12 9.51 10.18 9.7 10.3C9.89 10.42 10.06 10.57 10.21 10.77L10.85 9.8C10.66 9.54 10.41 9.31 10.1 9.11C9.79 8.91 9.44 8.81 9.05 8.81C8.66 8.81 8.3 8.9 7.95 9.08C7.6 9.26 7.3 9.52 7.04 9.87C6.78 10.22 6.57 10.64 6.42 11.13C6.27 11.62 6.2 12.19 6.2 12.83C6.2 13.47 6.27 14.03 6.42 14.52C6.57 15.01 6.77 15.43 7.03 15.76C7.29 16.1 7.58 16.35 7.92 16.52C8.26 16.69 8.62 16.77 9.01 16.77C9.4 16.77 9.78 16.67 10.1 16.48L10.09 16.5ZM15.86 16.3C16.27 15.98 16.59 15.52 16.82 14.92C17.05 14.32 17.17 13.6 17.17 12.76C17.17 11.92 17.05 11.22 16.82 10.64C16.59 10.06 16.27 9.61 15.86 9.29C15.45 8.97 14.97 8.82 14.43 8.82C13.89 8.82 13.41 8.98 13 9.29C12.59 9.6 12.27 10.05 12.03 10.64C11.8 11.23 11.68 11.94 11.68 12.77C11.68 13.6 11.8 14.32 12.03 14.93C12.26 15.53 12.58 15.99 13 16.31C13.42 16.63 13.89 16.79 14.43 16.79C14.97 16.79 15.46 16.63 15.86 16.31V16.3ZM13.63 15.12C13.41 14.9 13.23 14.59 13.12 14.18C13.01 13.77 12.94 13.3 12.94 12.76C12.94 12.22 13 11.75 13.12 11.35C13.24 10.95 13.41 10.66 13.63 10.45C13.85 10.24 14.12 10.13 14.42 10.13C14.72 10.13 14.99 10.24 15.21 10.45C15.43 10.66 15.61 10.96 15.73 11.35C15.85 11.74 15.91 12.21 15.91 12.76C15.91 13.31 15.85 13.78 15.73 14.18C15.61 14.58 15.44 14.9 15.21 15.12C14.99 15.34 14.72 15.45 14.42 15.45C14.12 15.45 13.85 15.34 13.63 15.12ZM22.34 16.64V15.35H21C20.86 15.35 20.69 15.35 20.5 15.38C20.31 15.4 20.14 15.42 19.99 15.45C20.36 14.97 20.7 14.49 21.01 14.03C21.32 13.57 21.57 13.12 21.76 12.67C21.95 12.22 22.05 11.78 22.05 11.35C22.05 10.88 21.97 10.47 21.81 10.12C21.65 9.77 21.42 9.5 21.13 9.31C20.84 9.12 20.5 9.02 20.11 9.02C19.69 9.02 19.34 9.12 19.04 9.32C18.74 9.52 18.44 9.81 18.16 10.19L18.84 11.02C18.99 10.81 19.16 10.63 19.35 10.47C19.54 10.31 19.74 10.23 19.96 10.23C20.16 10.23 20.33 10.28 20.46 10.37C20.59 10.46 20.7 10.61 20.77 10.79C20.84 10.97 20.88 11.19 20.88 11.44C20.88 11.81 20.77 12.2 20.55 12.63C20.33 13.05 20.02 13.53 19.62 14.04C19.22 14.55 18.76 15.13 18.23 15.77V16.65H22.34V16.64Z" fill="#009859"/>
</svg>
