<svg width="33" height="32" viewBox="0 0 33 32" fill="none" xmlns="http://www.w3.org/2000/svg">
<path d="M11 24.75L6 29.75L1 24.75H11ZM22 24.75L17 29.75L12 24.75H22ZM33 24.75L28 29.75L23 24.75H33ZM31.09 17.17C31.09 20.6 28.07 23.5 24.5 23.5H9.42001C5.93001 23.5 3.09 20.66 3.09 17.17C3.09 15.07 4.13 13.15 5.78 11.99C5.8 6.48 10.29 2 15.81 2C18.6 2 21.24 3.16 23.12 5.16C26.38 5.3 29 8 29 11.29C29 11.66 28.97 12.02 28.91 12.37C30.27 13.55 31.11 15.28 31.11 17.16L31.09 17.17ZM28.59 17.17C28.59 15.4 27.39 13.91 25.76 13.47C26.21 12.86 26.48 12.11 26.48 11.29C26.48 9.28 24.85 7.65 22.84 7.65C22.55 7.65 22.27 7.69 22 7.75C20.64 5.78 18.37 4.49 15.8 4.49C11.64 4.49 8.26999 7.86 8.26999 12.02C8.26999 12.51 8.32 13 8.41 13.46C6.78 13.9 5.57999 15.39 5.57999 17.16C5.57999 19.28 7.29 20.99 9.41 20.99H24.49C26.61 20.99 28.58 19.28 28.58 17.16L28.59 17.17ZM13.09 18.5C13.42 18.31 13.71 18.03 13.96 17.65L13.3 16.7C13.14 16.92 12.96 17.1 12.75 17.24C12.54 17.38 12.31 17.45 12.04 17.45C11.72 17.45 11.44 17.34 11.2 17.13C10.96 16.92 10.77 16.61 10.64 16.21C10.51 15.81 10.45 15.33 10.45 14.77C10.45 14.21 10.52 13.74 10.66 13.35C10.8 12.96 10.99 12.65 11.24 12.44C11.49 12.23 11.76 12.12 12.07 12.12C12.3 12.12 12.51 12.18 12.7 12.3C12.89 12.42 13.06 12.57 13.21 12.77L13.85 11.8C13.66 11.54 13.41 11.31 13.1 11.11C12.79 10.91 12.44 10.81 12.05 10.81C11.66 10.81 11.3 10.9 10.95 11.08C10.6 11.26 10.3 11.52 10.04 11.87C9.78001 12.22 9.57001 12.64 9.42001 13.13C9.27001 13.62 9.20001 14.19 9.20001 14.83C9.20001 15.47 9.27001 16.03 9.42001 16.52C9.57001 17.01 9.77 17.43 10.03 17.76C10.29 18.1 10.58 18.35 10.92 18.52C11.26 18.69 11.62 18.77 12.01 18.77C12.4 18.77 12.78 18.67 13.1 18.48L13.09 18.5ZM18.86 18.3C19.27 17.98 19.59 17.52 19.82 16.92C20.05 16.32 20.17 15.6 20.17 14.76C20.17 13.92 20.05 13.22 19.82 12.64C19.59 12.06 19.27 11.61 18.86 11.29C18.45 10.97 17.97 10.82 17.43 10.82C16.89 10.82 16.41 10.98 16 11.29C15.59 11.6 15.27 12.05 15.03 12.64C14.8 13.23 14.68 13.94 14.68 14.77C14.68 15.6 14.8 16.32 15.03 16.93C15.26 17.53 15.58 17.99 16 18.31C16.42 18.63 16.89 18.79 17.43 18.79C17.97 18.79 18.46 18.63 18.86 18.31V18.3ZM16.63 17.12C16.41 16.9 16.23 16.59 16.12 16.18C16.01 15.77 15.94 15.3 15.94 14.76C15.94 14.22 16 13.75 16.12 13.35C16.24 12.95 16.41 12.66 16.63 12.45C16.85 12.24 17.12 12.13 17.42 12.13C17.72 12.13 17.99 12.24 18.21 12.45C18.43 12.66 18.61 12.96 18.73 13.35C18.85 13.74 18.91 14.21 18.91 14.76C18.91 15.31 18.85 15.78 18.73 16.18C18.61 16.58 18.44 16.9 18.21 17.12C17.99 17.34 17.72 17.45 17.42 17.45C17.12 17.45 16.85 17.34 16.63 17.12ZM25.34 18.64V17.35H24C23.86 17.35 23.69 17.35 23.5 17.38C23.31 17.4 23.14 17.42 22.99 17.45C23.36 16.97 23.7 16.49 24.01 16.03C24.32 15.57 24.57 15.12 24.76 14.67C24.95 14.22 25.05 13.78 25.05 13.35C25.05 12.88 24.97 12.47 24.81 12.12C24.65 11.77 24.42 11.5 24.13 11.31C23.84 11.12 23.5 11.02 23.11 11.02C22.69 11.02 22.34 11.12 22.04 11.32C21.74 11.52 21.44 11.81 21.16 12.19L21.84 13.02C21.99 12.81 22.16 12.63 22.35 12.47C22.54 12.31 22.74 12.23 22.96 12.23C23.16 12.23 23.33 12.28 23.46 12.37C23.59 12.46 23.7 12.61 23.77 12.79C23.84 12.97 23.88 13.19 23.88 13.44C23.88 13.81 23.77 14.2 23.55 14.63C23.33 15.05 23.02 15.53 22.62 16.04C22.22 16.55 21.76 17.13 21.23 17.77V18.65H25.34V18.64Z" fill="#41724A"/>
</svg>
